<svg width="400" height="200" viewBox="0 0 400 200" xmlns="http://www.w3.org/2000/svg" role="img" aria-label="Integración de pagos y CRM">
  <defs>
    <linearGradient id="bg" x1="0" y1="0" x2="1" y2="1">
      <stop offset="0%" stop-color="#40916C"/>
      <stop offset="100%" stop-color="#1B4332"/>
    </linearGradient>
  </defs>

  <rect width="400" height="200" rx="14" fill="url(#bg)"/>
  <circle cx="352" cy="22" r="60" fill="rgba(255,255,255,0.05)"/>
  <circle cx="30" cy="190" r="80" fill="rgba(255,255,255,0.05)"/>

  <g transform="rotate(-6 95 100)">
    <rect x="52" y="62" width="112" height="76" rx="10" fill="#FBF6EC"/>
    <rect x="70" y="80" width="20" height="15" rx="3" fill="#95D5B2"/>
    <rect x="118" y="80" width="26" height="6" rx="3" fill="#74C69D"/>
    <rect x="118" y="92" width="34" height="6" rx="3" fill="#40916C"/>
    <rect x="70" y="110" width="24" height="6" rx="3" fill="#B7E4C7"/>
    <rect x="104" y="110" width="34" height="6" rx="3" fill="#B7E4C7"/>
  </g>

  <g stroke="#B7E4C7" stroke-width="6" stroke-linecap="round" fill="none">
    <path d="M 205 72 A 28 28 0 0 1 233 100"/>
    <path d="M 205 128 A 28 28 0 0 1 177 100"/>
  </g>
  <g fill="#B7E4C7">
    <path d="M 233 100 l -10 -4 l 4 8 l 6 -4 z"/>
    <path d="M 177 100 l 10 4 l -4 -8 l -6 4 z"/>
  </g>

  <circle cx="305" cy="100" r="36" fill="rgba(255,255,255,0.08)"/>
  <circle cx="305" cy="88" r="11" fill="#B7E4C7"/>
  <path d="M 289 122 a 16 16 0 0 1 32 0 z" fill="#B7E4C7"/>
  <rect x="267" y="74" width="8" height="8" rx="2" fill="#74C69D"/>
  <rect x="267" y="92" width="8" height="8" rx="2" fill="#74C69D"/>
</svg>
