<svg width="400" height="200" viewBox="0 0 400 200" xmlns="http://www.w3.org/2000/svg" role="img" aria-label="Gestión de stock y ventas">
  <defs>
    <linearGradient id="bg" x1="0" y1="0" x2="1" y2="1">
      <stop offset="0%" stop-color="#40916C"/>
      <stop offset="100%" stop-color="#1B4332"/>
    </linearGradient>
  </defs>

  <rect width="400" height="200" rx="14" fill="url(#bg)"/>
  <circle cx="352" cy="22" r="60" fill="rgba(255,255,255,0.05)"/>
  <circle cx="30" cy="190" r="80" fill="rgba(255,255,255,0.05)"/>

  <g>
    <path d="M55 108 L98 90 L158 90 L158 108 Z" fill="#95D5B2"/>
    <rect x="55" y="108" width="103" height="56" rx="6" fill="#FBF6EC"/>
    <rect x="99" y="108" width="16" height="56" fill="#74C69D"/>
    <rect x="112" y="122" width="28" height="8" rx="4" fill="#40916C"/>
    <rect x="112" y="138" width="22" height="8" rx="4" fill="#B7E4C7"/>
  </g>

  <path d="M 178 136 h 42" stroke="#B7E4C7" stroke-width="6" stroke-linecap="round"/>
  <path d="M 220 136 l -12 -5 l 5 10 l 7 -5 z" fill="#B7E4C7"/>

  <rect x="252" y="146" width="100" height="6" rx="3" fill="#FBF6EC"/>
  <rect x="258" y="112" width="22" height="34" rx="4" fill="#B7E4C7"/>
  <rect x="290" y="94" width="22" height="52" rx="4" fill="#74C69D"/>
  <rect x="322" y="76" width="22" height="70" rx="4" fill="#95D5B2"/>
</svg>
